<svg width="158" height="48" viewBox="0 0 158 48" fill="none"
  xmlns="http://www.w3.org/2000/svg">
  <path d="M35.6557 8.66178C33.8875 5.60381 30.6203 3.71606 27.0882 3.71606H15.6294C12.0931 3.71606 8.82583 5.60381 7.06195 8.66178L1.32612 18.5874C-0.442039 21.6496 -0.442039 25.4208 1.32612 28.4831L7.05768 38.4087C8.82583 41.4709 12.0931 43.3544 15.6251 43.3544H27.084C30.6203 43.3544 33.8875 41.4666 35.6514 38.4087L41.383 28.4831C43.1511 25.4208 43.1511 21.6496 41.383 18.5874L35.6514 8.66178H35.6557ZM38.5215 32.4208C38.5215 33.0529 38.1841 33.638 37.6374 33.9498L22.2408 42.8376C21.6941 43.1536 21.0193 43.1536 20.4726 42.8376L5.07598 33.9541C4.5293 33.638 4.1919 33.0529 4.1919 32.4251V14.6453C4.1919 14.0132 4.5293 13.4281 5.07598 13.1163L20.4726 4.2243C21.0193 3.90826 21.6941 3.90826 22.2408 4.2243L37.6374 13.1121C38.1841 13.4281 38.5215 14.0132 38.5215 14.641V32.4208Z" fill="#6E27D5"/>
  <path fill-rule="evenodd" clip-rule="evenodd" d="M72.7849 14.3811H67.6797L60.1612 23.1535V14.3811H56.335V32.7748H60.1612V27.9641L63.2243 24.6558L68.247 32.7748H73.2077L65.8336 21.8826L72.7849 14.3811ZM86.5383 29.2402V22.7317C86.5383 19.6189 84.2694 18.204 79.8758 18.204C76.0495 18.204 73.497 19.9019 73.497 22.8706H77.184C77.184 21.8827 77.6069 20.7508 80.0202 20.7508C82.1448 20.7508 82.8564 21.5998 82.8564 22.5876C82.8564 23.2925 82.5728 24.0025 79.7366 24.0025C75.0594 24.0025 73.2133 25.8445 73.2133 28.6691C73.2133 31.0719 74.6314 33.1968 78.0349 33.1968C81.4383 33.1968 82.8564 30.65 82.8564 30.65V30.794C82.8564 32.4919 83.2793 32.7749 83.2793 32.7749H87.2499V32.636C87.2499 32.636 86.5383 32.07 86.5383 29.2402ZM82.8513 26.6934C82.8513 29.3791 80.8659 30.511 79.1642 30.511C77.6069 30.511 76.756 29.8062 76.756 28.3861C76.756 27.2542 77.6069 26.4053 79.4478 26.4053C81.8466 26.4053 82.7497 25.5403 82.8438 25.4502C82.8474 25.4466 82.8513 25.4431 82.8513 25.4431V26.6934ZM92.0654 21.0338C92.0654 21.0338 93.4835 18.204 96.8869 18.204C100.29 18.204 103.266 20.6222 103.266 25.7107C103.266 30.7992 100.29 33.2071 96.8869 33.2071C93.4835 33.2071 92.0654 30.6603 92.0654 30.6603V37.0247H88.3783V18.631H92.0654V21.0338ZM92.0654 25.7055C92.0654 29.2402 93.9115 30.6551 95.7524 30.6551C97.5986 30.6551 99.4395 29.2402 99.4395 25.7055C99.4395 22.1709 97.5986 20.756 95.7524 20.756C93.9063 20.756 92.0654 22.1709 92.0654 25.7055ZM111.492 24.0025C108.655 24.0025 108.233 23.1536 108.233 22.4487C108.233 21.7438 108.944 20.7508 110.924 20.7508C113.049 20.7508 113.761 21.7387 113.761 22.8706H117.448C117.448 21.3168 116.741 18.204 111.069 18.204C106.675 18.204 104.546 20.1849 104.546 22.5876C104.546 25.1344 106.247 26.5493 110.641 26.5493C113.616 26.5493 114.183 27.3983 114.183 28.3861C114.183 29.374 113.616 30.65 111.208 30.65C109.367 30.65 108.088 29.801 108.088 28.1031H104.262C104.262 30.65 105.964 33.1968 111.208 33.1968C115.885 33.1968 118.015 30.9329 118.015 28.2472C118.015 24.9904 115.607 24.0025 111.492 24.0025ZM121.279 14.3811H124.966V18.6258H128.085V21.4556H124.966V28.669C124.966 29.9399 125.394 30.2228 126.384 30.2228C126.951 30.2228 128.085 30.0788 128.085 30.0788V32.7697C128.085 32.7697 126.239 33.0526 124.966 33.0526C121.985 33.0526 121.279 32.0648 121.279 28.669V21.4556H118.442V18.6258H121.279V14.3811ZM142.545 29.2402V22.7317C142.545 19.6189 140.276 18.204 135.883 18.204C132.056 18.204 129.504 19.9019 129.504 22.8706H133.191C133.191 21.8827 133.614 20.7508 136.027 20.7508C138.152 20.7508 138.863 21.5998 138.863 22.5876C138.863 23.2925 138.58 24.0025 135.743 24.0025C131.066 24.0025 129.22 25.8445 129.22 28.6691C129.22 31.0719 130.638 33.1968 134.042 33.1968C137.445 33.1968 138.863 30.65 138.863 30.65V30.794C138.863 32.4919 139.286 32.7749 139.286 32.7749H143.257V32.636C143.257 32.636 142.55 32.07 142.55 29.2402H142.545ZM138.858 26.6934C138.858 29.3791 136.873 30.511 135.171 30.511C133.614 30.511 132.763 29.8062 132.763 28.3861C132.763 27.2542 133.614 26.4053 135.455 26.4053C137.854 26.4053 138.757 25.5402 138.851 25.4502C138.854 25.4467 138.858 25.4431 138.858 25.4431V26.6934ZM148.079 21.3168C148.079 21.3168 150.064 18.204 153.184 18.204C156.587 18.204 158 20.3187 158 23.4314V32.7698H154.313V24.4244C154.313 22.0217 153.323 21.1728 151.621 21.1728C149.92 21.1728 148.079 22.4487 148.079 25.7004V32.7749H144.392V18.6259H148.079V21.3168Z" fill="white"/>
</svg>
