<svg xmlns="http://www.w3.org/2000/svg" width="100%" viewBox="0 0 41 41" fill="none" class="footer_social-svg">
  <g clip-path="url(#clip0_15030_6094)">
    <path d="M32.6419 6.25391H8.68974C8.29171 6.25455 7.89772 6.32898 7.53026 6.47294C7.1628 6.6169 6.82906 6.82757 6.54811 7.09293C6.26715 7.35828 6.04447 7.67313 5.89279 8.01948C5.74111 8.36584 5.66339 8.73692 5.66408 9.11154V31.9693C5.6627 32.3443 5.73993 32.7158 5.89132 33.0626C6.04271 33.4095 6.26531 33.7248 6.54636 33.9905C6.82741 34.2563 7.16139 34.4673 7.52918 34.6113C7.89698 34.7554 8.29135 34.8298 8.68974 34.8302H32.6419C33.0397 34.8296 33.4335 34.7552 33.8007 34.6113C34.168 34.4675 34.5015 34.2569 34.7823 33.9917C35.0631 33.7265 35.2857 33.4118 35.4373 33.0657C35.5889 32.7195 35.6665 32.3487 35.6658 31.9743V9.11154C35.6672 8.35524 35.3495 7.62937 34.7824 7.09351C34.2154 6.55764 33.4455 6.25565 32.6419 6.25391V6.25391ZM15.2907 28.8621H11.2547V16.6399H15.2907V28.8621ZM13.2474 15.1405C11.9719 15.1405 11.1535 14.2898 11.1535 13.2403C11.1483 12.1663 11.9981 11.3451 13.3032 11.3451C14.6084 11.3451 15.3971 12.1663 15.4268 13.2436C15.4233 14.2898 14.6014 15.1405 13.2474 15.1405ZM30.0281 28.8621H25.9921V22.0875C25.9921 20.5142 25.4076 19.4384 23.9471 19.4384C22.8321 19.4384 22.1691 20.1643 21.8759 20.864C21.7726 21.1706 21.7277 21.4919 21.7433 21.8132V28.8621H17.7074V20.5421C17.7074 19.018 17.6533 17.7501 17.6009 16.6432H21.1064L21.2914 18.343H21.3716C21.8951 17.5432 23.2038 16.3722 25.3849 16.3722C28.0406 16.3722 30.0316 18.0474 30.0316 21.6457L30.0281 28.8621Z" fill="currentColor"></path>
  </g>
  <defs>
    <clipPath id="clip0_15030_6094">
      <rect width="30" height="28.5714" fill="currentColor" transform="translate(5.66406 6.25391)"></rect>
    </clipPath>
  </defs>
</svg>