<svg xmlns="http://www.w3.org/2000/svg" width="16" height="16" viewBox="0 0 16 16" fill="none">
  <path fill-rule="evenodd" clip-rule="evenodd" d="M12.0002 1.54995C11.1994 1.54995 10.5502 2.19914 10.5502 2.99995C10.5502 3.25367 10.6153 3.49189 10.7296 3.69913C10.7362 3.70896 10.7425 3.71905 10.7486 3.72939C10.7545 3.73965 10.7602 3.75003 10.7654 3.76052C11.021 4.17445 11.4785 4.44995 12.0002 4.44995C12.801 4.44995 13.4502 3.80076 13.4502 2.99995C13.4502 2.19914 12.801 1.54995 12.0002 1.54995ZM9.57157 3.77946L5.87414 5.93719C5.40837 5.43275 4.74115 5.11662 4.0002 5.11662C2.59187 5.11662 1.4502 6.25829 1.4502 7.66662C1.4502 9.07494 2.59187 10.2166 4.0002 10.2166C4.74126 10.2166 5.40858 9.90038 5.87436 9.3958L9.57252 11.5508C9.49307 11.7975 9.4502 12.0605 9.4502 12.3333C9.4502 13.7416 10.5919 14.8833 12.0002 14.8833C13.4085 14.8833 14.5502 13.7416 14.5502 12.3333C14.5502 10.925 13.4085 9.78328 12.0002 9.78328C11.2604 9.78328 10.594 10.0985 10.1284 10.6016L6.42892 8.44582C6.50769 8.20009 6.55019 7.93823 6.55019 7.66662C6.55019 7.39489 6.50766 7.13292 6.42882 6.8871L10.1262 4.72937C10.592 5.23381 11.2592 5.54995 12.0002 5.54995C13.4085 5.54995 14.5502 4.40828 14.5502 2.99995C14.5502 1.59163 13.4085 0.449951 12.0002 0.449951C10.5919 0.449951 9.4502 1.59163 9.4502 2.99995C9.4502 3.27168 9.49273 3.53364 9.57157 3.77946ZM5.23503 6.90614C4.97949 6.49216 4.52198 6.21661 4.0002 6.21661C3.19938 6.21661 2.5502 6.8658 2.5502 7.66662C2.5502 8.46743 3.19938 9.11662 4.0002 9.11662C4.52198 9.11662 4.97949 8.84108 5.23502 8.42709C5.24022 8.41674 5.24576 8.40649 5.25166 8.39637C5.25774 8.38594 5.26411 8.37578 5.27077 8.36588C5.3851 8.15862 5.4502 7.92037 5.4502 7.66662C5.4502 7.41286 5.3851 7.1746 5.27076 6.96733C5.26417 6.95753 5.25786 6.94747 5.25184 6.93716C5.24587 6.92694 5.24027 6.9166 5.23503 6.90614ZM10.7114 11.6681C10.6084 11.8673 10.5502 12.0933 10.5502 12.3333C10.5502 13.1341 11.1994 13.7833 12.0002 13.7833C12.801 13.7833 13.4502 13.1341 13.4502 12.3333C13.4502 11.5325 12.801 10.8833 12.0002 10.8833C11.494 10.8833 11.0483 11.1426 10.7888 11.5361C10.7793 11.559 10.7682 11.5816 10.7554 11.6035C10.7421 11.6264 10.7274 11.6479 10.7114 11.6681Z" fill="#FFF56E"/>
</svg>