<svg width="1080" height="1080" viewBox="0 0 1080 1080" fill="none"
  xmlns="http://www.w3.org/2000/svg">
  <g clip-path="url(#clip0_661_195)">
    <rect width="1080" height="1080" fill="black"/>
    <rect x="55" y="56" width="108" height="108" fill="#0078FD"/>
    <rect x="271" y="56" width="108" height="108" fill="#0078FD"/>
    <rect x="487" y="56.4463" width="108" height="107.107" fill="#0078FD"/>
    <rect x="703" y="56" width="108" height="108" fill="#0078FD"/>
    <rect x="919" y="56" width="108" height="108" fill="#0078FD"/>
    <rect x="161.5" y="164" width="108" height="108" fill="#0078FD"/>
    <rect x="377.5" y="164" width="108" height="108" fill="#0078FD"/>
    <rect x="593.5" y="164" width="108" height="108" fill="#0078FD"/>
    <rect x="809.5" y="164" width="108" height="108" fill="#0078FD"/>
    <rect x="55" y="272" width="108" height="108" fill="#0078FD"/>
    <rect x="271" y="272" width="108" height="108" fill="#0078FD"/>
    <rect x="487" y="272.446" width="108" height="107.107" fill="#0078FD"/>
    <rect x="703" y="272" width="108" height="108" fill="#0078FD"/>
    <rect x="919" y="272" width="108" height="108" fill="#0078FD"/>
    <rect x="161.5" y="380" width="108" height="108" fill="#0078FD"/>
    <rect x="377.5" y="380" width="108" height="108" fill="#0078FD"/>
    <rect x="593.5" y="380" width="108" height="108" fill="#0078FD"/>
    <rect x="809.5" y="380" width="108" height="108" fill="#0078FD"/>
    <rect x="55" y="488" width="108" height="108" fill="#0078FD"/>
    <rect x="271" y="488" width="108" height="108" fill="#0078FD"/>
    <rect x="487" y="488.446" width="108" height="107.107" fill="#0078FD"/>
    <rect x="703" y="488" width="108" height="108" fill="#0078FD"/>
    <rect x="919" y="488" width="108" height="108" fill="#0078FD"/>
    <rect x="161.5" y="596" width="108" height="108" fill="#0078FD"/>
    <rect x="377.5" y="596" width="108" height="108" fill="#0078FD"/>
    <rect x="593.5" y="596" width="108" height="108" fill="#0078FD"/>
    <rect x="809.5" y="596" width="108" height="108" fill="#0078FD"/>
    <rect x="55" y="704" width="108" height="108" fill="#0078FD"/>
    <rect x="271" y="704" width="108" height="108" fill="#0078FD"/>
    <rect x="487" y="704.446" width="108" height="107.107" fill="#0078FD"/>
    <rect x="703" y="704" width="108" height="108" fill="#0078FD"/>
    <rect x="919" y="704" width="108" height="108" fill="#0078FD"/>
    <rect x="161.5" y="812" width="108" height="108" fill="#0078FD"/>
    <rect x="377.5" y="812.446" width="108" height="107.107" fill="#0078FD"/>
    <rect x="593.5" y="812" width="108" height="108" fill="#0078FD"/>
    <rect x="809.5" y="812" width="108" height="108" fill="#0078FD"/>
    <rect x="55" y="920" width="108" height="108" fill="#0078FD"/>
    <rect x="271" y="920" width="108" height="108" fill="#0078FD"/>
    <rect x="487" y="920.446" width="108" height="107.107" fill="#0078FD"/>
    <rect x="703" y="920" width="108" height="108" fill="#0078FD"/>
    <rect x="919" y="920" width="108" height="108" fill="#0078FD"/>
  </g>
  <defs>
    <clipPath id="clip0_661_195">
      <rect width="1080" height="1080" fill="white"/>
    </clipPath>
  </defs>
</svg>
