<svg xmlns="http://www.w3.org/2000/svg" width="100%" viewBox="0 0 32 32" fill="none" class="footer_superset-svg">
  <path fill-rule="evenodd" clip-rule="evenodd" d="M16 32C24.8366 32 32 24.8366 32 16C32 7.16344 24.8366 0 16 0C7.16344 0 0 7.16344 0 16C0 24.8366 7.16344 32 16 32ZM13.3617 18.3773V19.7547C13.3617 21.6174 14.3382 22.1652 16.1562 22.16H16.8158V20.7982H16.447C15.5848 20.7982 15.2784 20.4017 15.2784 19.7913V18.0695C15.2784 16.8955 14.5668 16.3738 13.7669 16.1807V16.1442C14.5668 15.9511 15.2784 15.4294 15.2784 14.2554V12.5493C15.2784 11.9232 15.5848 11.5423 16.447 11.5423H16.8158V10.1805H16.1562C14.3382 10.1805 13.3617 10.7284 13.3617 12.591V13.9528C13.3617 14.7563 13.0345 15.4189 12.1827 15.4189V16.9112C13.0293 16.9112 13.3617 17.5738 13.3617 18.3773ZM5.08846 17.318H6.89081C7.04144 17.9806 7.46216 18.3511 8.27244 18.3511C8.86975 18.3511 9.37877 18.0954 9.37877 17.6884C9.37877 17.2293 9.02558 16.9997 8.33996 16.8849L7.5141 16.744C6.17922 16.5145 5.20273 15.7892 5.20273 14.5788C5.20273 13.3683 6.47009 12.5126 7.94521 12.5126C9.29048 12.5126 10.724 12.9352 10.9786 14.7823H9.26451C9.08791 14.1196 8.61524 13.8901 7.9556 13.8901C7.32192 13.8901 6.94275 14.1822 6.94275 14.5266C6.94275 14.8605 7.17129 15.137 7.83094 15.2518L8.59447 15.3771C10.0021 15.6327 11.1707 16.1649 11.1707 17.5058C11.1707 18.9459 9.83585 19.7598 8.24127 19.7598C6.58436 19.765 5.36894 19.0659 5.08846 17.318ZM16.8808 17.3962H18.6831C18.8337 18.0589 19.2545 18.4293 20.0648 18.4293C20.6621 18.4293 21.1711 18.1736 21.1711 17.7667C21.1711 17.3075 20.8179 17.078 20.1323 16.9632L19.3064 16.8223C17.9715 16.5927 16.995 15.8675 16.995 14.657C16.995 13.4465 18.2624 12.5909 19.7375 12.5909C21.0828 12.5909 22.5164 13.0135 22.7709 14.8605H21.0568C20.8802 14.1979 20.4076 13.9683 19.7479 13.9683C19.1142 13.9683 18.7351 14.2605 18.7351 14.6048C18.7351 14.9388 18.9636 15.2153 19.6233 15.3301L20.3868 15.4553C21.7944 15.711 22.9631 16.2432 22.9631 17.5841C22.9631 19.0241 21.6282 19.838 20.0336 19.838C18.3819 19.8433 17.1612 19.1441 16.8808 17.3962ZM23.6558 22.1652H22.9962V20.8035H23.3649C24.2272 20.8035 24.5336 20.4069 24.5336 19.7965V18.0747C24.5336 16.9007 25.2452 16.379 26.0451 16.1859V16.1494C25.2452 15.9564 24.5336 15.4346 24.5336 14.2607V12.5545C24.5336 11.9284 24.2272 11.5475 23.3649 11.5475H22.9962V10.1805H23.6558C25.4685 10.1805 26.4502 10.7284 26.4502 12.591V13.9528C26.4502 14.7563 26.7826 15.4189 27.6293 15.4189V16.9112C26.7774 16.9112 26.4502 17.5738 26.4502 18.3773V19.7547C26.4502 21.6174 25.4737 22.1652 23.6558 22.1652Z" fill="currentColor"></path>
</svg>