<svg width="833" height="326" viewBox="0 0 833 326" fill="none" xmlns="http://www.w3.org/2000/svg">
  <path d="M558.085 254.112C558.085 269.323 555.117 282.263 549.18 292.933C543.29 303.604 535.249 311.754 525.059 317.384C514.915 322.969 503.508 325.762 490.84 325.762C478.078 325.762 466.625 322.946 456.481 317.316C446.337 311.686 438.32 303.536 432.429 292.865C426.539 282.195 423.594 269.277 423.594 254.112C423.594 238.901 426.539 225.96 432.429 215.29C438.32 204.62 446.337 196.492 456.481 190.907C466.625 185.277 478.078 182.462 490.84 182.462C503.508 182.462 514.915 185.277 525.059 190.907C535.249 196.492 543.29 204.62 549.18 215.29C555.117 225.96 558.085 238.901 558.085 254.112ZM527.302 254.112C527.302 244.259 525.783 235.95 522.745 229.184C519.753 222.419 515.522 217.288 510.053 213.792C504.583 210.295 498.179 208.547 490.84 208.547C483.501 208.547 477.096 210.295 471.627 213.792C466.157 217.288 461.903 222.419 458.865 229.184C455.873 235.95 454.377 244.259 454.377 254.112C454.377 263.965 455.873 272.274 458.865 279.039C461.903 285.805 466.157 290.936 471.627 294.432C477.096 297.928 483.501 299.676 490.84 299.676C498.179 299.676 504.583 297.928 510.053 294.432C515.522 290.936 519.753 285.805 522.745 279.039C525.783 272.274 527.302 263.965 527.302 254.112Z" fill="white"/>
  <path d="M384.948 229.457C383.967 226.142 382.587 223.213 380.811 220.671C379.035 218.083 376.861 215.903 374.29 214.132C371.766 212.316 368.867 210.931 365.595 209.978C362.369 209.024 358.793 208.547 354.866 208.547C347.527 208.547 341.076 210.318 335.513 213.86C329.997 217.401 325.696 222.555 322.611 229.32C319.526 236.04 317.983 244.259 317.983 253.976C317.983 263.692 319.502 271.956 322.541 278.767C325.579 285.578 329.88 290.777 335.443 294.364C341.006 297.905 347.574 299.676 355.147 299.676C362.019 299.676 367.886 298.496 372.747 296.135C377.656 293.728 381.395 290.345 383.967 285.986C386.584 281.628 387.893 276.474 387.893 270.526L394.064 271.411H357.04V249.208H417.134V266.78C417.134 279.039 414.469 289.573 409.14 298.382C403.811 307.145 396.471 313.911 387.122 318.678C377.773 323.401 367.067 325.762 355.007 325.762C341.544 325.762 329.717 322.878 319.526 317.112C309.335 311.3 301.388 303.059 295.685 292.389C290.028 281.673 287.2 268.959 287.2 254.248C287.2 242.942 288.883 232.862 292.249 224.008C295.661 215.108 300.43 207.571 306.553 201.396C312.677 195.221 319.806 190.521 327.94 187.298C336.074 184.074 344.886 182.462 354.376 182.462C362.51 182.462 370.083 183.62 377.095 185.935C384.107 188.206 390.324 191.429 395.747 195.607C401.216 199.784 405.681 204.756 409.14 210.523C412.599 216.244 414.82 222.555 415.801 229.457H384.948Z" fill="white"/>
  <path d="M278.462 184.369V323.855H252.237L189.759 236.063H188.707V323.855H158.345V184.369H184.991L246.978 272.092H248.24V184.369H278.462Z" fill="white"/>
  <path d="M147.186 184.369V323.855H116.824V184.369H147.186Z" fill="white"/>
  <path d="M0.100098 323.855V184.369H57.5989C68.1638 184.369 76.9756 185.89 84.0344 188.932C91.0932 191.974 96.399 196.197 99.9517 201.6C103.505 206.958 105.281 213.133 105.281 220.126C105.281 225.574 104.159 230.365 101.915 234.497C99.6713 238.583 96.586 241.943 92.6592 244.577C88.7792 247.165 84.3382 249.004 79.3363 250.093V251.455C84.8057 251.683 89.9245 253.181 94.6927 255.951C99.5076 258.72 103.411 262.603 106.403 267.597C109.395 272.546 110.891 278.449 110.891 285.305C110.891 292.706 108.997 299.313 105.211 305.125C101.471 310.891 95.9315 315.455 88.5922 318.815C81.2529 322.175 72.2074 323.855 61.4556 323.855H0.100098ZM30.4623 299.744H55.2148C63.676 299.744 69.8466 298.178 73.7267 295.045C77.6067 291.866 79.5467 287.644 79.5467 282.377C79.5467 278.517 78.5883 275.112 76.6717 272.16C74.7551 269.209 72.0204 266.893 68.4676 265.213C64.9616 263.533 60.7777 262.693 55.916 262.693H30.4623V299.744ZM30.4623 242.738H52.971C57.1315 242.738 60.8245 242.034 64.05 240.626C67.3223 239.173 69.8934 237.13 71.7633 234.497C73.6799 231.863 74.6382 228.707 74.6382 225.03C74.6382 219.99 72.7917 215.926 69.0987 212.838C65.4524 209.751 60.2635 208.207 53.532 208.207H30.4623V242.738Z" fill="white"/>
  <path d="M829.867 82.0342L796.187 84.0473C795.612 81.2513 794.374 78.735 792.474 76.4982C790.574 74.2055 788.07 72.3881 784.961 71.046C781.91 69.648 778.254 68.949 773.993 68.949C768.294 68.949 763.487 70.1233 759.572 72.472C755.657 74.7647 753.699 77.8402 753.699 81.6987C753.699 84.7743 754.966 87.3745 757.499 89.4995C760.032 91.6244 764.379 93.33 770.539 94.6161L794.547 99.3134C807.443 101.886 817.057 106.024 823.39 111.728C829.723 117.431 832.889 124.925 832.889 134.207C832.889 142.651 830.327 150.06 825.204 156.435C820.137 162.81 813.171 167.787 804.305 171.366C795.496 174.889 785.335 176.65 773.821 176.65C756.261 176.65 742.271 173.099 731.851 165.998C721.488 158.84 715.414 149.11 713.629 136.807L749.813 134.962C750.907 140.163 753.555 144.133 757.758 146.873C761.961 149.557 767.344 150.899 773.907 150.899C780.355 150.899 785.537 149.697 789.451 147.292C793.424 144.832 795.439 141.672 795.496 137.814C795.439 134.571 794.028 131.915 791.265 129.845C788.502 127.721 784.241 126.099 778.484 124.98L755.513 120.535C742.559 118.018 732.916 113.657 726.583 107.45C720.308 101.243 717.17 93.33 717.17 83.7118C717.17 75.4357 719.473 68.3059 724.079 62.3226C728.742 56.3392 735.276 51.7258 743.682 48.4824C752.145 45.2391 762.047 43.6174 773.389 43.6174C790.142 43.6174 803.326 47.0565 812.941 53.9346C822.613 60.8127 828.255 70.1793 829.867 82.0342Z" fill="white"/>
  <path d="M582.636 222.448V45.295H618.906V66.9359H620.547C622.159 63.4689 624.491 59.946 627.542 56.3671C630.651 52.7323 634.681 49.7127 639.632 47.3081C644.641 44.8477 650.859 43.6174 658.286 43.6174C667.958 43.6174 676.881 46.0779 685.056 50.9988C693.232 55.8638 699.766 63.2173 704.66 73.0591C709.553 82.845 712 95.1194 712 109.882C712 124.254 709.611 136.388 704.832 146.286C700.112 156.128 693.663 163.593 685.488 168.682C677.371 173.714 668.274 176.231 658.199 176.231C651.06 176.231 644.987 175.084 639.978 172.792C635.027 170.499 630.968 167.619 627.801 164.152C624.635 160.629 622.217 157.078 620.547 153.499H619.425V222.448H582.636ZM618.647 109.714C618.647 117.375 619.741 124.058 621.929 129.762C624.117 135.465 627.283 139.911 631.428 143.098C635.574 146.23 640.611 147.796 646.541 147.796C652.528 147.796 657.595 146.202 661.74 143.015C665.885 139.771 669.023 135.298 671.153 129.594C673.341 123.834 674.434 117.208 674.434 109.714C674.434 102.277 673.369 95.7345 671.239 90.0866C669.109 84.4387 665.971 80.0211 661.826 76.8337C657.681 73.6463 652.586 72.0526 646.541 72.0526C640.553 72.0526 635.487 73.5903 631.342 76.6659C627.254 79.7415 624.117 84.1032 621.929 89.7511C619.741 95.399 618.647 102.053 618.647 109.714Z" fill="white"/>
  <path d="M572.65 88.2412C572.65 106.974 568.994 122.911 561.682 136.052C554.428 149.194 544.526 159.231 531.975 166.165C519.482 173.043 505.435 176.482 489.833 176.482C474.116 176.482 460.01 173.015 447.517 166.081C435.024 159.147 425.151 149.11 417.897 135.969C410.643 122.827 407.016 106.918 407.016 88.2412C407.016 69.5081 410.643 53.571 417.897 40.4299C425.151 27.2888 435.024 17.2792 447.517 10.4011C460.01 3.46702 474.116 0 489.833 0C505.435 0 519.482 3.46702 531.975 10.4011C544.526 17.2792 554.428 27.2888 561.682 40.4299C568.994 53.571 572.65 69.5081 572.65 88.2412ZM534.739 88.2412C534.739 76.1066 532.868 65.8733 529.125 57.5413C525.441 49.2093 520.231 42.8904 513.495 38.5845C506.759 34.2787 498.871 32.1258 489.833 32.1258C480.794 32.1258 472.907 34.2787 466.171 38.5845C459.435 42.8904 454.196 49.2093 450.454 57.5413C446.769 65.8733 444.927 76.1066 444.927 88.2412C444.927 100.376 446.769 110.609 450.454 118.941C454.196 127.273 459.435 133.592 466.171 137.898C472.907 142.204 480.794 144.357 489.833 144.357C498.871 144.357 506.759 142.204 513.495 137.898C520.231 133.592 525.441 127.273 529.125 118.941C532.868 110.609 534.739 100.376 534.739 88.2412Z" fill="white"/>
  <path d="M407.631 45.2949L361.256 174.134H319.805L273.431 45.2949H312.292L339.84 137.478H341.221L368.683 45.2949H407.631Z" fill="white"/>
  <path d="M219.662 176.65C206.017 176.65 194.273 173.966 184.428 168.598C174.641 163.174 167.099 155.513 161.802 145.615C156.506 135.661 153.857 123.89 153.857 110.302C153.857 97.0486 156.506 85.4174 161.802 75.4077C167.099 65.3981 174.554 57.5973 184.169 52.0054C193.841 46.4134 205.183 43.6174 218.194 43.6174C226.945 43.6174 235.091 44.9875 242.633 47.7275C250.233 50.4117 256.853 54.4658 262.495 59.89C268.195 65.3142 272.628 72.1364 275.794 80.3566C278.961 88.5209 280.544 98.0831 280.544 109.043V118.857H168.538V96.7131H245.915C245.915 91.5685 244.763 87.0111 242.46 83.0408C240.158 79.0705 236.962 75.9669 232.875 73.7301C228.845 71.4374 224.153 70.2911 218.798 70.2911C213.214 70.2911 208.263 71.5493 203.945 74.0657C199.685 76.5261 196.345 79.8533 193.927 84.0473C191.509 88.1854 190.272 92.7987 190.214 97.8874V118.941C190.214 125.316 191.423 130.824 193.841 135.465C196.317 140.107 199.8 143.686 204.29 146.202C208.781 148.718 214.106 149.977 220.266 149.977C224.354 149.977 228.096 149.417 231.493 148.299C234.89 147.181 237.797 145.503 240.215 143.266C242.633 141.029 244.475 138.289 245.742 135.046L279.767 137.227C278.04 145.167 274.499 152.101 269.145 158.029C263.848 163.901 256.997 168.486 248.592 171.785C240.244 175.029 230.601 176.65 219.662 176.65Z" fill="white"/>
  <path d="M62.6957 174.134H0V2.34863H63.2138C81.0035 2.34863 96.3176 5.78769 109.156 12.6658C121.995 19.488 131.868 29.3019 138.777 42.1075C145.743 54.9131 149.226 70.235 149.226 88.0734C149.226 105.968 145.743 121.346 138.777 134.207C131.868 147.069 121.937 156.938 108.983 163.817C96.0873 170.695 80.6581 174.134 62.6957 174.134ZM37.3929 143.014H61.1413C72.195 143.014 81.4929 141.113 89.0348 137.311C96.6343 133.452 102.334 127.497 106.134 119.444C109.991 111.336 111.92 100.879 111.92 88.0734C111.92 75.3796 109.991 65.0066 106.134 56.9541C102.334 48.9017 96.663 42.9742 89.1211 39.1717C81.5792 35.3692 72.2814 33.4679 61.2276 33.4679H37.3929V143.014Z" fill="white"/>
</svg>
