<svg xmlns="http://www.w3.org/2000/svg" width="16" height="16" viewBox="0 0 16 16" fill="none">
  <path fill-rule="evenodd" clip-rule="evenodd" d="M8.00023 6.55C7.19942 6.55 6.55023 7.19919 6.55023 8C6.55023 8.80082 7.19942 9.45 8.00023 9.45C8.80104 9.45 9.45023 8.80082 9.45023 8C9.45023 7.19919 8.80104 6.55 8.00023 6.55ZM5.45023 8C5.45023 6.59168 6.59191 5.45 8.00023 5.45C9.40856 5.45 10.5502 6.59168 10.5502 8C10.5502 9.40833 9.40856 10.55 8.00023 10.55C6.59191 10.55 5.45023 9.40833 5.45023 8Z" fill="black"/>
  <path fill-rule="evenodd" clip-rule="evenodd" d="M0.311283 7.38452C0.267834 7.46177 0.234656 7.5232 0.211906 7.56619C0.200529 7.58769 0.191636 7.60482 0.185483 7.61679L0.178278 7.63089L0.17616 7.63509L0.175415 7.63657C0.0980909 7.79122 0.097575 7.97442 0.175091 8.12945L0.17625 8.13176L0.178478 8.13616L0.1856 8.15011C0.191754 8.16208 0.200529 8.17897 0.211906 8.20047C0.234656 8.24347 0.267834 8.3049 0.311283 8.38214C0.398139 8.53655 0.526291 8.75458 0.694513 9.01506C1.03027 9.53494 1.52925 10.2295 2.18237 10.9262C3.47856 12.3088 5.4472 13.7667 8.00028 13.7667C10.5534 13.7667 12.522 12.3088 13.8182 10.9262C14.4713 10.2295 14.9703 9.53494 15.3061 9.01506C15.4743 8.75458 15.6024 8.53655 15.6893 8.38214C15.7327 8.3049 15.7659 8.24347 15.7887 8.20047C15.8 8.17897 15.8089 8.16185 15.8151 8.14988L15.8223 8.13576L15.8244 8.13162L15.8252 8.1301C15.9025 7.97537 15.9028 7.79179 15.8253 7.63684L15.8243 7.63492L15.8221 7.6305L15.815 7.61656C15.8088 7.60459 15.8 7.58769 15.7887 7.56619C15.7659 7.5232 15.7327 7.46177 15.6893 7.38452C15.6024 7.23011 15.4743 7.01208 15.3061 6.75161C14.9703 6.23172 14.4713 5.53716 13.8182 4.8405C12.522 3.4579 10.5534 2 8.00028 2C5.4472 2 3.47856 3.4579 2.18237 4.8405C1.52925 5.53716 1.03027 6.23172 0.694513 6.75161C0.526291 7.01208 0.398139 7.23011 0.311283 7.38452ZM1.6186 8.41825C1.4785 8.20133 1.36962 8.01794 1.29297 7.88331C1.36962 7.74868 1.4785 7.56529 1.6186 7.34836C1.92867 6.86825 2.38803 6.22948 2.98491 5.59281C4.18867 4.30879 5.8867 3.09998 8.00033 3.09998C10.114 3.09998 11.812 4.30879 13.0157 5.59281C13.6126 6.22948 14.072 6.86825 14.3821 7.34836C14.5222 7.56529 14.631 7.74868 14.7077 7.88331C14.631 8.01794 14.5222 8.20133 14.3821 8.41825C14.072 8.89836 13.6126 9.53714 13.0157 10.1738C11.812 11.4578 10.114 12.6666 8.00033 12.6666C5.8867 12.6666 4.18867 11.4578 2.98491 10.1738C2.38803 9.53714 1.92867 8.89836 1.6186 8.41825Z" fill="black"/>
</svg>