<svg xmlns="http://www.w3.org/2000/svg" width="100%" viewBox="0 0 41 41" fill="none" class="footer_social-svg">
  <g clip-path="url(#clip0_15030_6097)">
    <path d="M36.9583 12.0172C36.8172 11.4892 36.5468 11.0008 36.1696 10.5924C35.7923 10.184 35.319 9.86721 34.7885 9.66823C29.6555 7.77188 21.4857 7.78907 21.0365 7.78907C20.5872 7.78907 12.4174 7.77188 7.28437 9.66823C6.75394 9.86721 6.28057 10.184 5.90332 10.5924C5.52607 11.0008 5.25574 11.4892 5.11465 12.0172C4.72682 13.4466 4.26562 16.0591 4.26562 20.3932C4.26562 24.7273 4.72682 27.3398 5.11465 28.7693C5.25553 29.2976 5.52576 29.7862 5.90302 30.1949C6.28029 30.6036 6.75377 30.9205 7.28437 31.1197C12.2018 32.9344 19.8984 32.9974 20.9376 32.9974H21.1353C22.1745 32.9974 29.8756 32.9344 34.7885 31.1197C35.3191 30.9205 35.7926 30.6036 36.1699 30.1949C36.5472 29.7862 36.8174 29.2976 36.9583 28.7693C37.3461 27.337 37.8073 24.7273 37.8073 20.3932C37.8073 16.0591 37.3461 13.4466 36.9583 12.0172ZM26.1605 20.8702L18.973 25.4535C18.8828 25.5111 18.7779 25.5442 18.6696 25.5492C18.5613 25.5542 18.4535 25.531 18.3579 25.482C18.2623 25.4331 18.1824 25.3602 18.1267 25.2712C18.071 25.1821 18.0416 25.0803 18.0417 24.9766V15.8099C18.0416 15.7062 18.071 15.6043 18.1267 15.5153C18.1824 15.4263 18.2623 15.3534 18.3579 15.3044C18.4535 15.2555 18.5613 15.2323 18.6696 15.2373C18.7779 15.2423 18.8828 15.2754 18.973 15.3329L26.1605 19.9163C26.2427 19.9686 26.3101 20.0395 26.3567 20.1227C26.4033 20.2059 26.4277 20.2988 26.4277 20.3932C26.4277 20.4876 26.4033 20.5806 26.3567 20.6638C26.3101 20.747 26.2427 20.8179 26.1605 20.8702Z" fill="currentColor"></path>
  </g>
  <defs>
    <clipPath id="clip0_15030_6097">
      <rect width="40" height="40" fill="currentColor" transform="translate(0.664062 0.390625)"></rect>
    </clipPath>
  </defs>
</svg>